<?xml version="1.0" encoding="UTF-8"?>
<svg version="1.1" xmlns="http://www.w3.org/2000/svg" width="512" height="512">
<path d="M0 0 C1.05338562 -0.00101212 1.05338562 -0.00101212 2.12805176 -0.00204468 C42.85284954 0.05968753 83.79580675 11.86102659 116.8125 36.25 C117.85019531 37.00539062 118.88789063 37.76078125 119.95703125 38.5390625 C127.54904013 44.1646574 134.54628297 50.33729301 141.36816406 56.86865234 C142.65051618 58.09508039 143.94547661 59.30829487 145.2421875 60.51953125 C180.69286611 94.51938138 200.7080386 145.31197018 202.015625 193.94921875 C202.58334224 237.44286828 191.67828584 283.36705044 164.125 318 C161.6334169 320.83404615 161.6334169 320.83404615 161.81808758 323.08237839 C163.33583489 326.39076614 165.8456746 328.66967977 168.41059875 331.1819458 C169.29581964 332.0667782 169.29581964 332.0667782 170.19892377 332.969486 C172.18328943 334.94941766 174.17816718 336.91841116 176.1730957 338.88769531 C177.59597742 340.30318423 179.01817179 341.71936437 180.43972778 343.13618469 C183.50541335 346.18898378 186.57564861 349.23710703 189.64937782 352.28180695 C194.51087286 357.09801502 199.3604187 361.92613361 204.20805359 366.75628662 C216.25375104 378.75487666 228.31444805 390.73836005 240.37963867 402.71734619 C249.74969472 412.02069586 259.11525547 421.32847196 268.46703786 430.65019488 C273.28360426 435.45026738 278.10939752 440.24080458 282.94237292 445.02435255 C285.95130896 448.00659453 288.95184958 450.99717506 291.95015335 453.99010277 C293.33980554 455.37387464 294.73289787 456.75420186 296.12970161 458.13075447 C298.04036852 460.01468391 299.93818766 461.91071167 301.83345032 463.81011963 C302.38530433 464.34827592 302.93715835 464.88643221 303.50573522 465.44089627 C309.49367682 471.50028208 312.41152033 478.03726425 313.0625 486.5 C312.48075875 495.22611872 309.32340927 501.39942635 302.8125 507.25 C297.06600469 511.91820557 290.7539447 511.7210803 283.59375 511.78125 C275.86959457 510.69603808 270.60523221 506.63705288 265.26977539 501.18829346 C264.66265779 500.58459356 264.0555402 499.98089366 263.4300251 499.35889983 C261.41379255 497.34921528 259.41212081 495.32564814 257.41015625 493.30175781 C255.96157844 491.85205087 254.51211759 490.40322583 253.06184387 488.95521545 C249.13814741 485.03266446 245.22688795 481.09792211 241.31777191 477.16084766 C237.22634884 473.04438343 233.12356055 468.93927849 229.02197266 464.83294678 C221.26163462 457.06018701 213.51154766 449.27728905 205.7651062 441.49068236 C196.9435 432.62433368 188.1105041 423.76936924 179.27654076 414.91533518 C161.10917325 396.7061815 142.95613106 378.48280264 124.8125 360.25 C123.70511475 360.87688721 122.59772949 361.50377441 121.45678711 362.1496582 C120.8338829 362.50228226 120.2109787 362.85490631 119.56919861 363.21821594 C117.39783965 364.49354772 115.39552898 365.93600599 113.375 367.4375 C81.03821428 390.31822566 41.09873275 401.77946918 1.6875 401.5625 C0.97361115 401.56034485 0.25972229 401.5581897 -0.47579956 401.55596924 C-12.90160706 401.49621733 -24.9868196 400.70764257 -37.1875 398.25 C-38.12787109 398.06195801 -39.06824219 397.87391602 -40.03710938 397.68017578 C-69.17363864 391.61247908 -96.61183798 379.45399219 -120.1875 361.25 C-121.10273437 360.54617188 -122.01796875 359.84234375 -122.9609375 359.1171875 C-134.86504951 349.65673485 -145.96331988 339.36100687 -155.1875 327.25 C-156.00734375 326.22261719 -156.8271875 325.19523437 -157.671875 324.13671875 C-163.45635456 316.86000158 -168.57515551 309.33435946 -173.1875 301.25 C-173.5469873 300.62673828 -173.90647461 300.00347656 -174.27685547 299.36132812 C-183.93365067 282.45251015 -190.80417757 264.21204318 -195.1875 245.25 C-195.38359863 244.43982422 -195.57969727 243.62964844 -195.78173828 242.79492188 C-202.15574422 215.46435185 -201.90189575 183.47549509 -195.1875 156.25 C-194.97319336 155.36054688 -194.75888672 154.47109375 -194.53808594 153.5546875 C-182.09377902 103.27026829 -150.7351052 58.09949387 -106.53320312 30.61303711 C-73.84929998 10.90326006 -38.23681345 0.03322883 0 0 Z M-108.1875 97.25 C-116.92466646 106.37773063 -123.97684791 116.26192322 -130.1875 127.25 C-130.54827637 127.88631348 -130.90905273 128.52262695 -131.28076172 129.17822266 C-150.5746819 163.86102339 -153.91163335 204.53483852 -143.6875 242.5625 C-139.02381064 258.76228407 -131.3967865 274.80000637 -121.1875 288.25 C-120.56617187 289.07886719 -119.94484375 289.90773438 -119.3046875 290.76171875 C-106.85268937 306.81824265 -92.72224192 319.9617353 -75.1875 330.25 C-74.5486084 330.62898438 -73.9097168 331.00796875 -73.25146484 331.3984375 C-40.53619285 350.53787515 -0.34078359 356.12412148 36.4519043 347.05029297 C76.59939983 336.40991762 109.93059317 311.35640937 131.23706055 275.65454102 C149.82908371 243.51638813 156.20013121 204.55685197 147.8125 168.25 C147.41224609 166.38988281 147.41224609 166.38988281 147.00390625 164.4921875 C137.81695311 126.02947701 112.16158226 92.93685259 78.8125 72.25 C18.1043903 35.35085207 -59.0057418 46.96285882 -108.1875 97.25 Z " fill="#000000" transform="translate(199.1875,-0.25)"/>
</svg>
