<?xml version="1.0" encoding="UTF-8"?>
<svg version="1.1" xmlns="http://www.w3.org/2000/svg" width="512" height="512">
<path d="M0 0 C5.49824831 3.7636193 8.30853723 9.10011654 10.04296875 15.3984375 C10.29983281 18.29581725 10.27683131 21.17129996 10.23828125 24.078125 C10.23545135 24.89088898 10.23262146 25.70365295 10.22970581 26.54104614 C10.21857494 29.11866425 10.1934839 31.69592569 10.16796875 34.2734375 C10.15792976 36.02864079 10.14880552 37.78384956 10.140625 39.5390625 C10.1186589 43.82565676 10.08417853 48.1119868 10.04296875 52.3984375 C10.63986008 52.46006577 11.2367514 52.52169403 11.85173035 52.58518982 C39.83337407 55.56566693 67.34105743 67.58430174 89.04296875 85.3984375 C89.86958008 86.06697754 89.86958008 86.06697754 90.71289062 86.74902344 C104.18824833 97.69305698 115.55539804 109.8422681 125.04296875 124.3984375 C125.46320313 125.04264648 125.8834375 125.68685547 126.31640625 126.35058594 C141.80509251 150.48712203 151.35298402 179.3764787 151.10546875 208.15380859 C151.09603036 210.32489927 151.08684604 212.49599106 151.07788086 214.66708374 C151.07158661 215.80818981 151.06529236 216.94929588 151.05880737 218.12498093 C151.03166556 224.20310558 151.04171766 230.28120666 151.046875 236.359375 C151.05308255 244.07777581 151.0476611 251.7954431 150.99169922 259.51367188 C150.94734579 265.76731579 150.94692801 272.01961648 150.97583008 278.2733345 C150.97890269 280.64869118 150.96608965 283.02412576 150.93676758 285.39930344 C150.1917067 300.12769356 150.1917067 300.12769356 156.45336914 312.74926758 C157.94673571 314.01020076 159.47216672 315.235391 161.04296875 316.3984375 C164.1199177 320.00506467 167.08393329 323.69467835 170.04296875 327.3984375 C170.46255859 327.9130957 170.88214844 328.42775391 171.31445312 328.95800781 C183.71927014 344.19052975 190.5960447 359.36375778 189.04296875 379.3984375 C187.11239985 396.03539893 179.4309903 410.28490377 167.04296875 421.3984375 C157.41137494 428.97510491 145.16949874 434.50809041 132.78162479 434.53265858 C131.73528466 434.53711642 130.68894453 434.54157426 129.61089712 434.54616719 C128.46772652 434.54598283 127.32455591 434.54579847 126.14674377 434.54560852 C124.92728386 434.54928521 123.70782395 434.5529619 122.45141071 434.55675 C119.06925033 434.56586026 115.68713841 434.5704829 112.30497038 434.57313931 C108.65580535 434.57704963 105.00665427 434.58662756 101.35749817 434.59535217 C92.54520264 434.61509764 83.732906 434.62518107 74.92059389 434.63407996 C70.76676843 434.63846664 66.61294425 434.64383252 62.4591198 434.64906883 C48.64350048 434.66608038 34.82788194 434.68057287 21.01225376 434.68781757 C17.42849794 434.68972735 13.84474212 434.6916477 10.26098633 434.69360352 C9.37030175 434.69408726 8.47961717 434.694571 7.56194215 434.6950694 C-6.85514239 434.70336341 -21.27214379 434.72869003 -35.68919205 434.76118419 C-50.50388218 434.79430124 -65.31853012 434.81227059 -80.13325745 434.81546181 C-88.44584406 434.81762278 -96.75830948 434.82631055 -105.07085991 434.85192299 C-112.15278537 434.87369368 -119.23456019 434.88164931 -126.31651532 434.87195621 C-129.92540213 434.86742963 -133.53397858 434.86920079 -137.14282227 434.88871765 C-160.18747809 435.00626354 -178.17366084 433.38346861 -195.70703125 416.77734375 C-207.10302647 404.72845297 -212.78195535 389.52214839 -213.39453125 373.0234375 C-212.87399161 355.19495492 -205.49517573 340.89084608 -193.875 327.74609375 C-190.77998454 324.23980136 -187.89082487 320.58877979 -185.01953125 316.8984375 C-184.34712402 316.03520874 -184.34712402 316.03520874 -183.66113281 315.15454102 C-183.02062988 314.33167603 -183.02062988 314.33167603 -182.3671875 313.4921875 C-179.95703125 310.3984375 -179.95703125 310.3984375 -177.83753967 308.34133911 C-175.08178825 304.02872599 -175.40791162 300.23697664 -175.45874023 295.21826172 C-175.45322144 294.19466553 -175.44770264 293.17106934 -175.4420166 292.11645508 C-175.43269597 289.89411206 -175.43259192 287.67171562 -175.44061089 285.44936752 C-175.4532616 281.91496081 -175.44192564 278.38133303 -175.42457581 274.84695435 C-175.39783486 268.59722323 -175.39228038 262.34768252 -175.39367676 256.09790039 C-175.39590033 246.14584643 -175.38135472 236.19403185 -175.3380909 226.24206924 C-175.32837234 222.7909577 -175.33691432 219.34023238 -175.3467865 215.88912964 C-175.30856671 176.07002099 -163.07849735 138.87795567 -136.95703125 108.3984375 C-136.48539551 107.84704102 -136.01375977 107.29564453 -135.52783203 106.72753906 C-110.46599241 77.78718244 -75.90499421 58.28519804 -37.95703125 52.3984375 C-36.63703125 52.3984375 -35.31703125 52.3984375 -33.95703125 52.3984375 C-33.97797852 51.32996582 -33.99892578 50.26149414 -34.02050781 49.16064453 C-34.09352446 45.15378499 -34.13905237 41.14698285 -34.17675781 37.13964844 C-34.1967341 35.41331048 -34.22392497 33.68703897 -34.25878906 31.9609375 C-34.67737035 10.6871591 -34.67737035 10.6871591 -28.24780273 3.48339844 C-20.41611178 -3.96835851 -9.51412408 -4.74864246 0 0 Z " fill="#000000" transform="translate(267.95703125,7.6015625)"/>
<path d="M0 0 C1.1921965 -0.0076664 1.1921965 -0.0076664 2.40847778 -0.01548767 C5.00620289 -0.02925889 7.603659 -0.02843655 10.20141602 -0.02612305 C12.02547807 -0.0300165 13.84953923 -0.0343525 15.67359924 -0.03910828 C19.48539172 -0.04654344 23.29709152 -0.04629866 27.10888672 -0.04101562 C31.97182222 -0.03522109 36.83437683 -0.05216482 41.69724941 -0.0753603 C45.46098515 -0.09015462 49.2246303 -0.09096167 52.98838997 -0.08785057 C54.78038348 -0.0883608 56.57238246 -0.09354201 58.36434746 -0.10366249 C80.1280262 -0.21152036 80.1280262 -0.21152036 87.89282227 5.4621582 C92.77103499 10.68881469 94.74511931 15.06620996 95.01782227 22.2746582 C94.76540296 28.73984956 93.32836205 33.2909572 88.86938477 38.0246582 C82.8118881 43.52666391 77.62208032 44.57391392 69.63183594 44.56518555 C68.74662766 44.57190277 67.86141937 44.57862 66.9493866 44.58554077 C64.02813068 44.60451079 61.10710467 44.60844458 58.18579102 44.6105957 C56.14943854 44.6170247 54.11308699 44.62375314 52.07673645 44.63076782 C47.80894836 44.64273837 43.54124119 44.64644891 39.2734375 44.64526367 C33.81599137 44.64506059 28.35906656 44.67235334 22.90174389 44.70680809 C18.69543596 44.72909272 14.48925314 44.73310072 10.28289223 44.73204422 C8.27153033 44.73439818 6.26016487 44.74321009 4.24886131 44.75870895 C1.42953832 44.77839883 -1.38866514 44.77251893 -4.20800781 44.76049805 C-5.03165833 44.77173706 -5.85530884 44.78297607 -6.70391846 44.79455566 C-13.29151887 44.7235117 -18.48483925 42.86116458 -23.50561523 38.52856445 C-23.95163086 37.97040039 -24.39764648 37.41223633 -24.85717773 36.8371582 C-25.31866211 36.28157227 -25.78014648 35.72598633 -26.25561523 35.15356445 C-30.14919627 29.18919351 -30.18379862 23.19192056 -29.48217773 16.2746582 C-27.96061483 10.48694107 -24.63025594 7.0733991 -19.97045898 3.5012207 C-13.73425952 0.42717576 -6.850827 -0.02331229 0 0 Z " fill="#000000" transform="translate(223.482177734375,462.725341796875)"/>
</svg>
